<?xml version="1.0"?>
<svg width="309" height="70" xmlns="http://www.w3.org/2000/svg" xmlns:svg="http://www.w3.org/2000/svg">
 <defs>
  <filter color-interpolation-filters="sRGB" filterUnits="userSpaceOnUse" height="53.18" id="filter0_d_509_52" width="146.21" x="162.1" y="5.81">
   <feFlood flood-opacity="0" result="BackgroundImageFix"/>
   <feColorMatrix in="SourceAlpha" result="hardAlpha" type="matrix" values="0 0 0 0 0 0 0 0 0 0 0 0 0 0 0 0 0 0 127 0"/>
   <feOffset dx="-0.64" dy="-1.29"/>
   <feGaussianBlur stdDeviation="2.57"/>
   <feComposite in2="hardAlpha" operator="out"/>
   <feColorMatrix type="matrix" values="0 0 0 0 0 0 0 0 0 0 0 0 0 0 0 0 0 0 0.5 0"/>
   <feBlend in2="BackgroundImageFix"/>
   <feBlend in="SourceGraphic" in2="effect1_dropShadow_509_52"/>
  </filter>
 </defs>
 <g class="layer">
  <title>Layer 1</title>
  <text fill="#ffffff" font-family="Helvetica" font-size="24" font-weight="bold" id="svg_1" stroke="#000000" stroke-width="0" text-anchor="middle" transform="matrix(2.18572 0 0 2.28126 24.1956 -31.8545)" x="28.17" xml:space="preserve" y="37.44">Golden</text>
  <g filter="url(#filter0_d_509_52)" id="svg_2">
   <path d="m183.79,40.01l-10.41,0l0,-6.56l10.41,0c1.61,0 2.92,-0.26 3.93,-0.79c1.01,-0.54 1.75,-1.29 2.22,-2.24c0.47,-0.96 0.7,-2.03 0.7,-3.23c0,-1.21 -0.23,-2.35 -0.7,-3.39c-0.47,-1.05 -1.21,-1.89 -2.22,-2.53c-1.01,-0.63 -2.32,-0.95 -3.93,-0.95l-7.49,0l0,34.25l-8.41,0l0,-40.85l15.9,0c3.2,0 5.94,0.58 8.22,1.74c2.3,1.14 4.06,2.73 5.28,4.75c1.21,2.02 1.82,4.32 1.82,6.92c0,2.64 -0.61,4.92 -1.82,6.85c-1.22,1.93 -2.98,3.41 -5.28,4.46c-2.28,1.05 -5.02,1.57 -8.22,1.57zm29.15,-15.79l0,30.35l-8.11,0l0,-30.35l8.11,0zm-8.61,-7.91c0,-1.18 0.41,-2.16 1.23,-2.92c0.83,-0.77 1.93,-1.15 3.31,-1.15c1.37,0 2.46,0.38 3.29,1.15c0.84,0.76 1.26,1.74 1.26,2.92c0,1.17 -0.42,2.15 -1.26,2.91c-0.83,0.77 -1.92,1.15 -3.29,1.15c-1.38,0 -2.48,-0.38 -3.31,-1.15c-0.82,-0.76 -1.23,-1.74 -1.23,-2.91zm39.44,31.95l0,6.31l-23.06,0l0,-6.31l23.06,0zm-0.45,-19.39l-19.35,25.7l-5.42,0l0,-4.8l19.28,-25.55l5.49,0l0,4.65zm-2.86,-4.65l0,6.34l-21.46,0l0,-6.34l21.46,0zm32.55,24.04l0,6.31l-23.07,0l0,-6.31l23.07,0zm-0.45,-19.39l-19.36,25.7l-5.42,0l0,-4.8l19.28,-25.55l5.5,0l0,4.65zm-2.86,-4.65l0,6.34l-21.47,0l0,-6.34l21.47,0zm24.77,23.51l0,-13.53c0,-0.97 -0.16,-1.8 -0.48,-2.49c-0.32,-0.71 -0.81,-1.26 -1.49,-1.66c-0.65,-0.39 -1.5,-0.59 -2.55,-0.59c-0.9,0 -1.67,0.16 -2.33,0.48c-0.65,0.3 -1.16,0.74 -1.51,1.32c-0.36,0.56 -0.54,1.22 -0.54,1.99l-8.07,0c0,-1.29 0.29,-2.52 0.89,-3.67c0.6,-1.16 1.47,-2.18 2.61,-3.06c1.14,-0.9 2.5,-1.6 4.07,-2.11c1.59,-0.5 3.37,-0.75 5.33,-0.75c2.36,0 4.45,0.39 6.28,1.17c1.84,0.79 3.28,1.97 4.32,3.54c1.07,1.57 1.6,3.53 1.6,5.89l0,12.99c0,1.66 0.11,3.03 0.31,4.1c0.21,1.04 0.51,1.96 0.9,2.74l0,0.48l-8.16,0c-0.4,-0.82 -0.7,-1.85 -0.9,-3.08c-0.19,-1.26 -0.28,-2.51 -0.28,-3.76zm1.06,-11.65l0.06,4.58l-4.52,0c-1.06,0 -1.99,0.12 -2.77,0.36c-0.79,0.24 -1.43,0.59 -1.94,1.04c-0.5,0.43 -0.88,0.93 -1.12,1.51c-0.23,0.58 -0.34,1.22 -0.34,1.91c0,0.69 0.16,1.32 0.48,1.88c0.32,0.54 0.77,0.97 1.37,1.29c0.6,0.3 1.3,0.45 2.11,0.45c1.21,0 2.27,-0.24 3.17,-0.73c0.9,-0.48 1.59,-1.08 2.07,-1.79c0.51,-0.71 0.77,-1.39 0.79,-2.02l2.13,3.42c-0.3,0.77 -0.71,1.56 -1.23,2.38c-0.51,0.83 -1.15,1.6 -1.94,2.33c-0.79,0.71 -1.73,1.3 -2.83,1.77c-1.11,0.45 -2.42,0.67 -3.93,0.67c-1.93,0 -3.68,-0.38 -5.25,-1.15c-1.55,-0.78 -2.78,-1.86 -3.7,-3.22c-0.9,-1.39 -1.35,-2.96 -1.35,-4.72c0,-1.59 0.3,-3 0.9,-4.23c0.6,-1.24 1.48,-2.28 2.64,-3.12c1.18,-0.86 2.65,-1.5 4.4,-1.93c1.76,-0.45 3.8,-0.68 6.12,-0.68l4.68,0z" fill="#E3AC1C" id="svg_3"/>
  </g>
  <rect fill="white" height="0" id="svg_6" width="0" x="-101.5" y="95.5"/>
 </g>
</svg>